<mxfile host="Electron" agent="Mozilla/5.0 (Macintosh; Intel Mac OS X 10_15_7) AppleWebKit/537.36 (KHTML, like Gecko) draw.io/28.0.4 Chrome/138.0.7204.97 Electron/37.2.1 Safari/537.36" version="28.0.4">
  <diagram name="Page-1" id="BpLOFuCSfXvprF_aa2A0">
    <mxGraphModel dx="847" dy="880" grid="0" gridSize="10" guides="1" tooltips="1" connect="1" arrows="1" fold="1" page="0" pageScale="1" pageWidth="850" pageHeight="1100" background="#000000" math="0" shadow="0">
      <root>
        <mxCell id="0" />
        <mxCell id="1" parent="0" />
        <mxCell id="EcfIhRAE1STNXyQr-O1w-21" value="" style="rounded=1;whiteSpace=wrap;html=1;arcSize=8;glass=0;perimeterSpacing=0;fillColor=#5C9C5A;strokeColor=#F0F0F0;strokeWidth=3;shadow=1;" parent="1" vertex="1">
          <mxGeometry x="43" y="395" width="833" height="452" as="geometry" />
        </mxCell>
        <mxCell id="EcfIhRAE1STNXyQr-O1w-19" style="edgeStyle=orthogonalEdgeStyle;rounded=0;orthogonalLoop=1;jettySize=auto;html=1;entryX=0.5;entryY=1;entryDx=0;entryDy=0;fontSize=11;startSize=8;endSize=8;exitX=0.5;exitY=0;exitDx=0;exitDy=0;strokeColor=#FFFFFF;strokeWidth=1.5;align=center;verticalAlign=middle;fontFamily=Helvetica;fontColor=default;labelBackgroundColor=default;startArrow=none;startFill=0;endArrow=open;endFill=0;" parent="1" source="EcfIhRAE1STNXyQr-O1w-9" target="EcfIhRAE1STNXyQr-O1w-22" edge="1">
          <mxGeometry relative="1" as="geometry">
            <Array as="points">
              <mxPoint x="458" y="699" />
              <mxPoint x="431" y="699" />
              <mxPoint x="431" y="599" />
              <mxPoint x="458" y="599" />
            </Array>
            <mxPoint x="440" y="600" as="targetPoint" />
          </mxGeometry>
        </mxCell>
        <mxCell id="EcfIhRAE1STNXyQr-O1w-20" value="" style="edgeLabel;html=1;align=center;verticalAlign=middle;resizable=0;points=[];fontSize=11;rounded=0;strokeColor=#FFFFFF;strokeWidth=1.5;fontFamily=Helvetica;fontColor=default;labelBackgroundColor=default;" parent="EcfIhRAE1STNXyQr-O1w-19" vertex="1" connectable="0">
          <mxGeometry x="-0.0639" y="-2" relative="1" as="geometry">
            <mxPoint as="offset" />
          </mxGeometry>
        </mxCell>
        <mxCell id="EcfIhRAE1STNXyQr-O1w-5" style="edgeStyle=orthogonalEdgeStyle;rounded=0;orthogonalLoop=1;jettySize=auto;html=1;exitX=0;exitY=0.75;exitDx=0;exitDy=0;entryX=0.5;entryY=1;entryDx=0;entryDy=0;strokeColor=#FFFFFF;strokeWidth=1.5;align=center;verticalAlign=middle;fontFamily=Helvetica;fontSize=11;fontColor=default;labelBackgroundColor=default;startArrow=none;startFill=0;endArrow=open;endFill=0;" parent="1" source="EcfIhRAE1STNXyQr-O1w-9" target="EcfIhRAE1STNXyQr-O1w-24" edge="1">
          <mxGeometry relative="1" as="geometry">
            <mxPoint x="260" y="755" as="targetPoint" />
          </mxGeometry>
        </mxCell>
        <mxCell id="EcfIhRAE1STNXyQr-O1w-6" value="" style="edgeLabel;html=1;align=center;verticalAlign=middle;resizable=0;points=[];rounded=0;strokeColor=#FFFFFF;strokeWidth=1.5;fontFamily=Helvetica;fontSize=11;fontColor=default;labelBackgroundColor=default;" parent="EcfIhRAE1STNXyQr-O1w-5" vertex="1" connectable="0">
          <mxGeometry x="0.0119" y="1" relative="1" as="geometry">
            <mxPoint x="-57" y="-15" as="offset" />
          </mxGeometry>
        </mxCell>
        <mxCell id="EcfIhRAE1STNXyQr-O1w-7" style="edgeStyle=orthogonalEdgeStyle;rounded=0;orthogonalLoop=1;jettySize=auto;html=1;exitX=1;exitY=0.25;exitDx=0;exitDy=0;entryX=0;entryY=0.5;entryDx=0;entryDy=0;strokeColor=#FFFFFF;strokeWidth=1.5;align=center;verticalAlign=middle;fontFamily=Helvetica;fontSize=11;fontColor=default;labelBackgroundColor=default;startArrow=none;startFill=0;endArrow=open;endFill=0;" parent="1" source="EcfIhRAE1STNXyQr-O1w-9" target="EcfIhRAE1STNXyQr-O1w-15" edge="1">
          <mxGeometry relative="1" as="geometry" />
        </mxCell>
        <mxCell id="EcfIhRAE1STNXyQr-O1w-8" value="" style="edgeLabel;html=1;align=center;verticalAlign=middle;resizable=0;points=[];rounded=0;strokeColor=#FFFFFF;strokeWidth=1.5;fontFamily=Helvetica;fontSize=11;fontColor=default;labelBackgroundColor=default;" parent="EcfIhRAE1STNXyQr-O1w-7" connectable="0" vertex="1">
          <mxGeometry x="-0.0469" y="-1" relative="1" as="geometry">
            <mxPoint x="-6" y="-1" as="offset" />
          </mxGeometry>
        </mxCell>
        <mxCell id="PinSbo6WGtGSPa0rnaia-2" style="edgeStyle=orthogonalEdgeStyle;rounded=0;orthogonalLoop=1;jettySize=auto;html=1;exitX=0;exitY=0.25;exitDx=0;exitDy=0;entryX=1;entryY=0.5;entryDx=0;entryDy=0;strokeColor=#FFFFFF;strokeWidth=1.5;align=center;verticalAlign=middle;fontFamily=Helvetica;fontSize=11;fontColor=default;labelBackgroundColor=default;startArrow=none;startFill=0;endArrow=open;endFill=0;" parent="1" source="EcfIhRAE1STNXyQr-O1w-9" target="EcfIhRAE1STNXyQr-O1w-24" edge="1">
          <mxGeometry relative="1" as="geometry" />
        </mxCell>
        <mxCell id="EcfIhRAE1STNXyQr-O1w-9" value="&lt;h2&gt;Jade OS Handler&lt;/h2&gt;" style="whiteSpace=wrap;html=1;rounded=1;opacity=60;strokeColor=#EBEBEB;strokeWidth=2;align=center;verticalAlign=middle;fontFamily=Helvetica;fontSize=12;fontColor=default;fillColor=#f5f5f5;gradientColor=#b3b3b3;" parent="1" vertex="1">
          <mxGeometry x="359" y="740" width="197" height="58" as="geometry" />
        </mxCell>
        <mxCell id="PinSbo6WGtGSPa0rnaia-12" style="edgeStyle=orthogonalEdgeStyle;rounded=0;orthogonalLoop=1;jettySize=auto;html=1;exitX=0.5;exitY=1;exitDx=0;exitDy=0;entryX=1;entryY=0.75;entryDx=0;entryDy=0;strokeColor=#FFFFFF;strokeWidth=1.5;align=center;verticalAlign=middle;fontFamily=Helvetica;fontSize=11;fontColor=default;labelBackgroundColor=default;startArrow=none;startFill=0;endArrow=open;endFill=0;" parent="1" source="EcfIhRAE1STNXyQr-O1w-15" target="EcfIhRAE1STNXyQr-O1w-9" edge="1">
          <mxGeometry relative="1" as="geometry" />
        </mxCell>
        <mxCell id="EcfIhRAE1STNXyQr-O1w-15" value="&lt;h2&gt;LorA Interface&lt;/h2&gt;" style="whiteSpace=wrap;html=1;rounded=1;glass=0;opacity=60;strokeColor=#EBEBEB;strokeWidth=2;align=center;verticalAlign=middle;fontFamily=Helvetica;fontSize=12;fontColor=default;fillColor=#f5f5f5;gradientColor=#b3b3b3;" parent="1" vertex="1">
          <mxGeometry x="616" y="595.38" width="187" height="52.5" as="geometry" />
        </mxCell>
        <mxCell id="EcfIhRAE1STNXyQr-O1w-18" value="&lt;h1&gt;&lt;font style=&quot;font-size: 27px;&quot;&gt;Jade Data Flow Diagram&lt;/font&gt;&lt;/h1&gt;" style="text;html=1;align=center;verticalAlign=middle;whiteSpace=wrap;rounded=0;" parent="1" vertex="1">
          <mxGeometry x="66" y="418" width="319.25" height="30" as="geometry" />
        </mxCell>
        <mxCell id="EcfIhRAE1STNXyQr-O1w-22" value="&lt;h2&gt;&lt;font face=&quot;Verdana&quot; style=&quot;color: rgb(255, 255, 255);&quot;&gt;SQLite&lt;/font&gt;&lt;/h2&gt;" style="rounded=1;whiteSpace=wrap;html=1;opacity=60;fillColor=#f5f5f5;gradientColor=#b3b3b3;strokeColor=#EBEBEB;strokeWidth=2;align=center;verticalAlign=middle;fontFamily=Helvetica;fontSize=12;fontColor=default;" parent="1" vertex="1">
          <mxGeometry x="379" y="499" width="157" height="64" as="geometry" />
        </mxCell>
        <mxCell id="EcfIhRAE1STNXyQr-O1w-23" style="edgeStyle=none;curved=1;rounded=0;orthogonalLoop=1;jettySize=auto;html=1;exitX=1;exitY=0;exitDx=0;exitDy=0;fontSize=12;startSize=8;endSize=8;" parent="1" edge="1">
          <mxGeometry relative="1" as="geometry">
            <mxPoint x="260" y="710" as="sourcePoint" />
            <mxPoint x="260" y="710" as="targetPoint" />
          </mxGeometry>
        </mxCell>
        <mxCell id="EcfIhRAE1STNXyQr-O1w-24" value="&lt;h2&gt;Jade HTTP Server&lt;/h2&gt;" style="rounded=1;whiteSpace=wrap;html=1;opacity=60;strokeColor=#EBEBEB;strokeWidth=2;align=center;verticalAlign=middle;fontFamily=Helvetica;fontSize=12;fontColor=default;fillColor=#f5f5f5;gradientColor=#b3b3b3;" parent="1" vertex="1">
          <mxGeometry x="116" y="594.01" width="197" height="55.25" as="geometry" />
        </mxCell>
        <mxCell id="PinSbo6WGtGSPa0rnaia-4" value="&lt;font style=&quot;font-size: 13px; color: rgb(235, 235, 235);&quot;&gt;&lt;i style=&quot;&quot;&gt;Send Message&lt;/i&gt;&lt;/font&gt;" style="rounded=1;whiteSpace=wrap;html=1;opacity=60;strokeColor=#EBEBEB;strokeWidth=2;align=center;verticalAlign=middle;fontFamily=Helvetica;fontSize=12;fontColor=default;fillColor=#f5f5f5;gradientColor=#b3b3b3;" parent="1" vertex="1">
          <mxGeometry x="229" y="674" width="114" height="38" as="geometry" />
        </mxCell>
        <mxCell id="PinSbo6WGtGSPa0rnaia-5" value="&lt;font style=&quot;font-size: 14px; color: rgb(255, 255, 255);&quot;&gt;&lt;i style=&quot;line-height: 130%;&quot;&gt;Log Message&lt;/i&gt;&lt;/font&gt;" style="rounded=1;whiteSpace=wrap;html=1;opacity=60;strokeColor=#EBEBEB;strokeWidth=2;align=center;verticalAlign=middle;fontFamily=Helvetica;fontSize=12;fontColor=default;fillColor=#f5f5f5;gradientColor=#b3b3b3;" parent="1" vertex="1">
          <mxGeometry x="425" y="627" width="102" height="39" as="geometry" />
        </mxCell>
        <mxCell id="PinSbo6WGtGSPa0rnaia-6" value="&lt;font style=&quot;font-size: 13px; color: rgb(255, 255, 255);&quot;&gt;&lt;i style=&quot;&quot;&gt;Send LXMF Message&lt;/i&gt;&lt;/font&gt;" style="rounded=1;whiteSpace=wrap;html=1;opacity=60;strokeColor=#EBEBEB;strokeWidth=2;align=center;verticalAlign=middle;fontFamily=Helvetica;fontSize=12;fontColor=default;fillColor=#f5f5f5;gradientColor=#b3b3b3;" parent="1" vertex="1">
          <mxGeometry x="570" y="688" width="125" height="43" as="geometry" />
        </mxCell>
        <mxCell id="PinSbo6WGtGSPa0rnaia-7" value="&lt;div style=&quot;text-wrap-mode: nowrap;&quot;&gt;&lt;font style=&quot;font-size: 13px; color: rgb(240, 240, 240);&quot;&gt;&lt;i style=&quot;&quot;&gt;Receive New&amp;nbsp;&lt;/i&gt;&lt;/font&gt;&lt;/div&gt;&lt;div style=&quot;text-wrap-mode: nowrap;&quot;&gt;&lt;font style=&quot;font-size: 13px; color: rgb(240, 240, 240);&quot;&gt;&lt;i style=&quot;&quot;&gt;Messages&lt;/i&gt;&lt;/font&gt;&lt;/div&gt;" style="rounded=1;whiteSpace=wrap;html=1;opacity=60;strokeColor=#EBEBEB;strokeWidth=2;align=center;verticalAlign=middle;fontFamily=Helvetica;fontSize=12;fontColor=default;fillColor=#f5f5f5;gradientColor=#b3b3b3;" parent="1" vertex="1">
          <mxGeometry x="104" y="758" width="121" height="46" as="geometry" />
        </mxCell>
        <mxCell id="PinSbo6WGtGSPa0rnaia-8" value="&lt;h4&gt;&lt;font face=&quot;Helvetica&quot; style=&quot;font-weight: normal; font-size: 13px; color: rgb(255, 255, 255);&quot;&gt;&lt;i style=&quot;&quot;&gt;Receive LoRA Message&lt;/i&gt;&lt;/font&gt;&lt;/h4&gt;" style="rounded=1;whiteSpace=wrap;html=1;strokeColor=#EBEBEB;fillColor=#f5f5f5;opacity=60;strokeWidth=2;align=center;verticalAlign=middle;fontFamily=Helvetica;fontSize=12;fontColor=default;gradientColor=#b3b3b3;" parent="1" vertex="1">
          <mxGeometry x="698" y="765" width="126" height="47" as="geometry" />
        </mxCell>
      </root>
    </mxGraphModel>
  </diagram>
</mxfile>
